<!DOCTYPE svg PUBLIC "-//W3C//DTD SVG 1.1//EN" "http://www.w3.org/Graphics/SVG/1.1/DTD/svg11.dtd">
<!-- Uploaded to: SVG Repo, www.svgrepo.com, Transformed by: SVG Repo Mixer Tools -->
<svg fill="#000000" height="800px" width="800px" version="1.1" id="Capa_1" xmlns="http://www.w3.org/2000/svg" xmlns:xlink="http://www.w3.org/1999/xlink" viewBox="0 0 511.00 511.00" xml:space="preserve" stroke="#000000" stroke-width="4.088">
<g id="SVGRepo_bgCarrier" stroke-width="0"/>
<g id="SVGRepo_tracerCarrier" stroke-linecap="round" stroke-linejoin="round"/>
<g id="SVGRepo_iconCarrier"> <g> <path d="M436.166,74.834C387.908,26.577,323.747,0,255.5,0S123.092,26.577,74.834,74.834C26.577,123.092,0,187.253,0,255.5 s26.577,132.408,74.834,180.666C123.092,484.423,187.253,511,255.5,511s132.408-26.577,180.666-74.834 C484.423,387.908,511,323.747,511,255.5S484.423,123.092,436.166,74.834z M425.559,425.559 c-43.652,43.652-101.13,68.444-162.559,70.313V487.5c0-4.142-3.358-7.5-7.5-7.5s-7.5,3.358-7.5,7.5v8.372 c-61.429-1.869-118.907-26.661-162.559-70.313C40.016,380.135,15,319.74,15,255.5S40.016,130.865,85.441,85.441 C129.093,41.789,186.571,16.997,248,15.128V23.5c0,4.142,3.358,7.5,7.5,7.5s7.5-3.358,7.5-7.5v-8.372 c61.429,1.87,118.907,26.661,162.559,70.313C470.984,130.865,496,191.26,496,255.5S470.984,380.135,425.559,425.559z"/> <path d="M255.5,48C141.084,48,48,141.084,48,255.5S141.084,463,255.5,463S463,369.916,463,255.5S369.916,48,255.5,48z M255.5,448 C149.355,448,63,361.645,63,255.5S149.355,63,255.5,63S448,149.355,448,255.5S361.645,448,255.5,448z"/> <path d="M302.875,224.7c-3.74,1.779-5.33,6.254-3.55,9.995c3.102,6.52,4.675,13.52,4.675,20.805c0,26.743-21.757,48.5-48.5,48.5 S207,282.243,207,255.5s21.757-48.5,48.5-48.5c7.266,0,14.25,1.565,20.757,4.652c3.742,1.774,8.216,0.181,9.991-3.562 c1.775-3.743,0.18-8.215-3.562-9.991C274.154,194.052,265.007,192,255.5,192c-35.014,0-63.5,28.486-63.5,63.5 s28.486,63.5,63.5,63.5s63.5-28.486,63.5-63.5c0-9.532-2.063-18.7-6.13-27.25C311.091,224.511,306.617,222.921,302.875,224.7z"/> <path d="M263.11,111.197c7.672,0.398,15.35,1.411,22.82,3.011c0.53,0.114,1.058,0.168,1.579,0.168c3.46,0,6.572-2.41,7.326-5.93 c0.868-4.05-1.712-8.037-5.762-8.905c-8.247-1.767-16.721-2.885-25.186-3.324c-4.141-0.221-7.664,2.965-7.878,7.102 C255.794,107.456,258.973,110.982,263.11,111.197z"/> <path d="M400.237,188.395c-14.427-31.066-38.996-57.133-69.182-73.397c-3.646-1.964-8.195-0.601-10.16,3.045 c-1.965,3.646-0.602,8.195,3.045,10.16c27.355,14.739,49.62,38.36,62.693,66.51c1.27,2.735,3.978,4.343,6.807,4.343 c1.057,0,2.132-0.225,3.154-0.7C400.35,196.611,401.981,192.151,400.237,188.395z"/> <path d="M217.465,394.944c-46.442-12.637-83.397-47.419-98.856-93.044c-1.329-3.923-5.587-6.023-9.51-4.697 c-3.923,1.33-6.026,5.587-4.697,9.51c17.064,50.361,57.858,88.755,109.125,102.705c0.66,0.18,1.322,0.265,1.974,0.265 c3.3,0,6.324-2.195,7.232-5.533C223.82,400.153,221.461,396.031,217.465,394.944z"/> <path d="M255.5,216c-21.78,0-39.5,17.72-39.5,39.5s17.72,39.5,39.5,39.5s39.5-17.72,39.5-39.5S277.28,216,255.5,216z M255.5,280 c-13.509,0-24.5-10.991-24.5-24.5s10.991-24.5,24.5-24.5s24.5,10.991,24.5,24.5S269.009,280,255.5,280z"/> </g> </g>
</svg>